<?xml version="1.0" standalone="no"?>
<!DOCTYPE svg PUBLIC "-//W3C//DTD SVG 20010904//EN"
 "http://www.w3.org/TR/2001/REC-SVG-20010904/DTD/svg10.dtd">
<svg version="1.0" xmlns="http://www.w3.org/2000/svg"
 width="90.000000pt" height="90.000000pt" viewBox="0 0 90.000000 90.000000"
 preserveAspectRatio="xMidYMid meet">
<metadata>
Created by potrace 1.11, written by Peter Selinger 2001-2013
</metadata>
<g transform="translate(0.000000,90.000000) scale(0.100000,-0.100000)"
fill="#000000" stroke="none">
<path d="M375 886 c-136 -58 -176 -205 -97 -356 l30 -56 -28 -12 c-43 -19
-117 -98 -145 -155 -32 -66 -41 -156 -25 -242 l12 -65 334 0 333 0 6 44 c13
84 1 217 -23 267 -25 51 -97 128 -140 150 -15 7 -29 14 -31 16 -2 1 6 15 17
30 24 34 51 114 55 163 7 72 -41 159 -109 201 -44 27 -143 35 -189 15z m158
-35 c31 -12 87 -68 87 -87 0 -14 -46 -26 -75 -20 -11 3 -47 15 -80 27 -51 19
-66 20 -100 11 -23 -7 -51 -21 -63 -32 -23 -22 -29 -12 -11 21 20 38 74 81
114 92 28 7 95 1 128 -12z m-53 -120 c48 -22 125 -28 136 -10 9 15 24 -2 25
-31 6 -105 -86 -251 -166 -266 -86 -16 -184 91 -201 219 -6 40 -4 45 29 70 68
52 98 55 177 18z m-140 -289 c0 -5 21 -19 46 -31 57 -29 110 -24 160 14 19 15
40 25 47 22 65 -26 158 -138 174 -209 9 -42 9 -144 0 -181 l-7 -27 -307 2
c-351 3 -312 -10 -317 113 -6 117 44 214 143 276 47 30 61 35 61 21z"/>
<path d="M562 331 c-5 -3 -8 -16 -7 -28 2 -23 -3 -26 -37 -26 -11 0 -19 -8
-19 -18 -1 -11 -2 -25 -3 -31 -4 -25 13 -46 34 -41 19 5 25 -4 21 -34 -2 -18
30 -30 64 -24 23 5 30 11 30 31 0 15 6 26 15 26 8 1 22 2 31 3 10 1 15 9 13
24 -1 12 -3 32 -3 45 -1 16 -7 23 -18 21 -34 -3 -45 1 -40 14 3 8 2 20 -3 27
-8 13 -62 21 -78 11z m48 -56 c0 -14 5 -26 10 -26 6 -1 15 -3 20 -4 6 -1 15
-3 20 -4 22 -2 8 -20 -17 -23 -22 -2 -29 -9 -31 -30 -3 -28 -21 -39 -23 -15
-1 6 -2 19 -3 27 0 9 -11 15 -26 15 -15 0 -25 6 -25 15 0 9 10 15 25 15 18 0
25 6 26 20 2 31 3 35 14 35 6 0 10 -11 10 -25z"/>
</g>
</svg>
